<mxfile host="app.diagrams.net" agent="Mozilla/5.0 (Windows NT 10.0; Win64; x64) AppleWebKit/537.36 (KHTML, like Gecko) Chrome/109.0.0.0 Safari/537.36" scale="1" border="0" version="24.7.16">
  <diagram name="Página-1" id="NyCLhhYt9VQB0o7ZkaEL">
    <mxGraphModel dx="2947" dy="1171" grid="1" gridSize="10" guides="1" tooltips="1" connect="1" arrows="1" fold="1" page="1" pageScale="1" pageWidth="827" pageHeight="1169" math="0" shadow="0">
      <root>
        <mxCell id="0" />
        <mxCell id="1" parent="0" />
        <mxCell id="2xbcmrgEp1bGuqN2L9k1-2" value="" style="rounded=0;whiteSpace=wrap;html=1;rotation=90;" parent="1" vertex="1">
          <mxGeometry x="-577.75" y="-238.25" width="1155" height="1642.5" as="geometry" />
        </mxCell>
        <mxCell id="DsosyKMC9AVD5Ugs_nfR-12" style="edgeStyle=orthogonalEdgeStyle;rounded=0;orthogonalLoop=1;jettySize=auto;html=1;exitX=0.5;exitY=0.5;exitDx=0;exitDy=0;exitPerimeter=0;entryX=0;entryY=0.5;entryDx=0;entryDy=0;endArrow=none;endFill=0;" edge="1" parent="1" source="2xbcmrgEp1bGuqN2L9k1-22" target="DsosyKMC9AVD5Ugs_nfR-6">
          <mxGeometry relative="1" as="geometry" />
        </mxCell>
        <mxCell id="DsosyKMC9AVD5Ugs_nfR-13" style="edgeStyle=orthogonalEdgeStyle;rounded=0;orthogonalLoop=1;jettySize=auto;html=1;exitX=0.5;exitY=0.5;exitDx=0;exitDy=0;exitPerimeter=0;entryX=0;entryY=0.5;entryDx=0;entryDy=0;endArrow=none;endFill=0;" edge="1" parent="1" source="2xbcmrgEp1bGuqN2L9k1-22" target="DsosyKMC9AVD5Ugs_nfR-5">
          <mxGeometry relative="1" as="geometry" />
        </mxCell>
        <mxCell id="DsosyKMC9AVD5Ugs_nfR-14" style="edgeStyle=orthogonalEdgeStyle;rounded=0;orthogonalLoop=1;jettySize=auto;html=1;exitX=0.5;exitY=0.5;exitDx=0;exitDy=0;exitPerimeter=0;entryX=0;entryY=0.5;entryDx=0;entryDy=0;endArrow=none;endFill=0;" edge="1" parent="1" source="2xbcmrgEp1bGuqN2L9k1-22" target="DsosyKMC9AVD5Ugs_nfR-4">
          <mxGeometry relative="1" as="geometry" />
        </mxCell>
        <mxCell id="DsosyKMC9AVD5Ugs_nfR-15" style="edgeStyle=orthogonalEdgeStyle;rounded=0;orthogonalLoop=1;jettySize=auto;html=1;exitX=0.5;exitY=0.5;exitDx=0;exitDy=0;exitPerimeter=0;entryX=0;entryY=0.5;entryDx=0;entryDy=0;endArrow=none;endFill=0;" edge="1" parent="1" source="2xbcmrgEp1bGuqN2L9k1-22" target="2xbcmrgEp1bGuqN2L9k1-24">
          <mxGeometry relative="1" as="geometry" />
        </mxCell>
        <mxCell id="DsosyKMC9AVD5Ugs_nfR-16" style="edgeStyle=orthogonalEdgeStyle;rounded=0;orthogonalLoop=1;jettySize=auto;html=1;exitX=0.5;exitY=0.5;exitDx=0;exitDy=0;exitPerimeter=0;entryX=0;entryY=0.5;entryDx=0;entryDy=0;endArrow=none;endFill=0;" edge="1" parent="1" source="2xbcmrgEp1bGuqN2L9k1-22" target="_47bZvJthy9wEYej37XV-11">
          <mxGeometry relative="1" as="geometry" />
        </mxCell>
        <mxCell id="DsosyKMC9AVD5Ugs_nfR-21" style="edgeStyle=orthogonalEdgeStyle;rounded=0;orthogonalLoop=1;jettySize=auto;html=1;exitX=0.5;exitY=0.5;exitDx=0;exitDy=0;exitPerimeter=0;entryX=0;entryY=0.5;entryDx=0;entryDy=0;endArrow=none;endFill=0;" edge="1" parent="1" source="2xbcmrgEp1bGuqN2L9k1-22" target="DsosyKMC9AVD5Ugs_nfR-17">
          <mxGeometry relative="1" as="geometry" />
        </mxCell>
        <mxCell id="DsosyKMC9AVD5Ugs_nfR-22" style="edgeStyle=orthogonalEdgeStyle;rounded=0;orthogonalLoop=1;jettySize=auto;html=1;exitX=0.5;exitY=0.5;exitDx=0;exitDy=0;exitPerimeter=0;entryX=0;entryY=0.5;entryDx=0;entryDy=0;endArrow=none;endFill=0;" edge="1" parent="1" source="2xbcmrgEp1bGuqN2L9k1-22" target="DsosyKMC9AVD5Ugs_nfR-18">
          <mxGeometry relative="1" as="geometry" />
        </mxCell>
        <mxCell id="DsosyKMC9AVD5Ugs_nfR-23" style="edgeStyle=orthogonalEdgeStyle;rounded=0;orthogonalLoop=1;jettySize=auto;html=1;exitX=0.5;exitY=0.5;exitDx=0;exitDy=0;exitPerimeter=0;entryX=0;entryY=0.5;entryDx=0;entryDy=0;endArrow=none;endFill=0;" edge="1" parent="1" source="2xbcmrgEp1bGuqN2L9k1-22" target="DsosyKMC9AVD5Ugs_nfR-19">
          <mxGeometry relative="1" as="geometry" />
        </mxCell>
        <mxCell id="DsosyKMC9AVD5Ugs_nfR-24" style="edgeStyle=orthogonalEdgeStyle;rounded=0;orthogonalLoop=1;jettySize=auto;html=1;exitX=0.5;exitY=0.5;exitDx=0;exitDy=0;exitPerimeter=0;entryX=0;entryY=0.5;entryDx=0;entryDy=0;endArrow=none;endFill=0;" edge="1" parent="1" source="2xbcmrgEp1bGuqN2L9k1-22" target="DsosyKMC9AVD5Ugs_nfR-20">
          <mxGeometry relative="1" as="geometry" />
        </mxCell>
        <mxCell id="DsosyKMC9AVD5Ugs_nfR-31" style="edgeStyle=orthogonalEdgeStyle;rounded=0;orthogonalLoop=1;jettySize=auto;html=1;exitX=0.5;exitY=0.5;exitDx=0;exitDy=0;exitPerimeter=0;entryX=0.5;entryY=1;entryDx=0;entryDy=0;endArrow=none;endFill=0;" edge="1" parent="1" source="2xbcmrgEp1bGuqN2L9k1-22" target="DsosyKMC9AVD5Ugs_nfR-25">
          <mxGeometry relative="1" as="geometry">
            <Array as="points">
              <mxPoint x="-590" y="593" />
              <mxPoint x="-590" y="475" />
              <mxPoint x="-100" y="475" />
              <mxPoint x="-100" y="455" />
            </Array>
          </mxGeometry>
        </mxCell>
        <mxCell id="DsosyKMC9AVD5Ugs_nfR-32" style="edgeStyle=orthogonalEdgeStyle;rounded=0;orthogonalLoop=1;jettySize=auto;html=1;exitX=0.5;exitY=0.5;exitDx=0;exitDy=0;exitPerimeter=0;entryX=0.5;entryY=1;entryDx=0;entryDy=0;endArrow=none;endFill=0;" edge="1" parent="1" source="2xbcmrgEp1bGuqN2L9k1-22" target="DsosyKMC9AVD5Ugs_nfR-26">
          <mxGeometry relative="1" as="geometry">
            <Array as="points">
              <mxPoint x="-715" y="593" />
              <mxPoint x="-590" y="593" />
              <mxPoint x="-590" y="600" />
              <mxPoint x="-100" y="600" />
            </Array>
          </mxGeometry>
        </mxCell>
        <mxCell id="DsosyKMC9AVD5Ugs_nfR-33" style="edgeStyle=orthogonalEdgeStyle;rounded=0;orthogonalLoop=1;jettySize=auto;html=1;exitX=0.5;exitY=0.5;exitDx=0;exitDy=0;exitPerimeter=0;entryX=0.5;entryY=1;entryDx=0;entryDy=0;endArrow=none;endFill=0;" edge="1" parent="1" source="2xbcmrgEp1bGuqN2L9k1-22" target="DsosyKMC9AVD5Ugs_nfR-27">
          <mxGeometry relative="1" as="geometry">
            <Array as="points">
              <mxPoint x="-590" y="593" />
              <mxPoint x="-590" y="725" />
              <mxPoint x="-100" y="725" />
            </Array>
          </mxGeometry>
        </mxCell>
        <mxCell id="DsosyKMC9AVD5Ugs_nfR-34" style="edgeStyle=orthogonalEdgeStyle;rounded=0;orthogonalLoop=1;jettySize=auto;html=1;exitX=0.5;exitY=0.5;exitDx=0;exitDy=0;exitPerimeter=0;entryX=0.5;entryY=1;entryDx=0;entryDy=0;endArrow=none;endFill=0;" edge="1" parent="1" source="2xbcmrgEp1bGuqN2L9k1-22" target="DsosyKMC9AVD5Ugs_nfR-28">
          <mxGeometry relative="1" as="geometry">
            <Array as="points">
              <mxPoint x="-590" y="593" />
              <mxPoint x="-590" y="845" />
              <mxPoint x="-100" y="845" />
            </Array>
          </mxGeometry>
        </mxCell>
        <mxCell id="DsosyKMC9AVD5Ugs_nfR-36" style="edgeStyle=orthogonalEdgeStyle;rounded=0;orthogonalLoop=1;jettySize=auto;html=1;exitX=0.5;exitY=0.5;exitDx=0;exitDy=0;exitPerimeter=0;entryX=0;entryY=0.5;entryDx=0;entryDy=0;endArrow=none;endFill=0;" edge="1" parent="1" source="2xbcmrgEp1bGuqN2L9k1-22" target="DsosyKMC9AVD5Ugs_nfR-35">
          <mxGeometry relative="1" as="geometry" />
        </mxCell>
        <mxCell id="2xbcmrgEp1bGuqN2L9k1-22" value="Administrador" style="shape=umlActor;verticalLabelPosition=bottom;verticalAlign=top;html=1;outlineConnect=0;fontSize=21;fillColor=#E8EDFF;" parent="1" vertex="1">
          <mxGeometry x="-760" y="495" width="90" height="190" as="geometry" />
        </mxCell>
        <mxCell id="DsosyKMC9AVD5Ugs_nfR-47" style="edgeStyle=orthogonalEdgeStyle;rounded=0;orthogonalLoop=1;jettySize=auto;html=1;exitX=1;exitY=0;exitDx=0;exitDy=0;entryX=0;entryY=0;entryDx=0;entryDy=0;endArrow=none;endFill=0;dashed=1;strokeWidth=2;" edge="1" parent="1" source="2xbcmrgEp1bGuqN2L9k1-24" target="2xbcmrgEp1bGuqN2L9k1-26">
          <mxGeometry relative="1" as="geometry">
            <Array as="points">
              <mxPoint x="-220" y="295" />
              <mxPoint x="-220" y="270" />
              <mxPoint x="175" y="270" />
            </Array>
          </mxGeometry>
        </mxCell>
        <mxCell id="DsosyKMC9AVD5Ugs_nfR-50" value="&lt;span style=&quot;font-size: 17px;&quot;&gt;&amp;lt;&amp;lt; include &amp;gt;&amp;gt;&lt;/span&gt;" style="edgeLabel;html=1;align=center;verticalAlign=middle;resizable=0;points=[];fontSize=17;" vertex="1" connectable="0" parent="DsosyKMC9AVD5Ugs_nfR-47">
          <mxGeometry x="0.1855" relative="1" as="geometry">
            <mxPoint x="1" as="offset" />
          </mxGeometry>
        </mxCell>
        <mxCell id="2xbcmrgEp1bGuqN2L9k1-24" value="Cadastro Pessoa" style="ellipse;whiteSpace=wrap;html=1;fontSize=20;strokeWidth=2;" parent="1" vertex="1">
          <mxGeometry x="-440" y="285" width="200" height="80" as="geometry" />
        </mxCell>
        <mxCell id="2xbcmrgEp1bGuqN2L9k1-26" value="Validar as informações" style="ellipse;whiteSpace=wrap;html=1;fontSize=20;strokeWidth=2;" parent="1" vertex="1">
          <mxGeometry x="140" y="275" width="243" height="90" as="geometry" />
        </mxCell>
        <mxCell id="2xbcmrgEp1bGuqN2L9k1-27" value="Validar Login" style="ellipse;whiteSpace=wrap;html=1;fontSize=20;strokeWidth=2;" parent="1" vertex="1">
          <mxGeometry x="110" y="90" width="170" height="90" as="geometry" />
        </mxCell>
        <mxCell id="m9dT4t8xpMJtpyGwQsV8-1" value="Sistema de Controle e Acesso do IFTO" style="text;html=1;align=center;verticalAlign=middle;whiteSpace=wrap;rounded=0;fontSize=30;fontStyle=1" parent="1" vertex="1">
          <mxGeometry x="-295.25" y="24" width="590" height="30" as="geometry" />
        </mxCell>
        <mxCell id="DsosyKMC9AVD5Ugs_nfR-53" style="edgeStyle=orthogonalEdgeStyle;rounded=0;orthogonalLoop=1;jettySize=auto;html=1;exitX=1;exitY=0;exitDx=0;exitDy=0;entryX=0.5;entryY=0;entryDx=0;entryDy=0;endArrow=none;endFill=0;dashed=1;strokeWidth=2;" edge="1" parent="1" source="_47bZvJthy9wEYej37XV-11" target="2xbcmrgEp1bGuqN2L9k1-26">
          <mxGeometry relative="1" as="geometry" />
        </mxCell>
        <mxCell id="DsosyKMC9AVD5Ugs_nfR-54" value="&lt;span style=&quot;font-size: 17px;&quot;&gt;&amp;lt;&amp;lt; include &amp;gt;&amp;gt;&lt;/span&gt;" style="edgeLabel;html=1;align=center;verticalAlign=middle;resizable=0;points=[];fontSize=17;" vertex="1" connectable="0" parent="DsosyKMC9AVD5Ugs_nfR-53">
          <mxGeometry x="-0.0894" y="-2" relative="1" as="geometry">
            <mxPoint x="-17" as="offset" />
          </mxGeometry>
        </mxCell>
        <mxCell id="_47bZvJthy9wEYej37XV-11" value="Vincular/Desvincular RFID" style="ellipse;whiteSpace=wrap;html=1;fontSize=20;strokeWidth=2;" parent="1" vertex="1">
          <mxGeometry x="-440" y="187" width="220" height="80" as="geometry" />
        </mxCell>
        <mxCell id="DsosyKMC9AVD5Ugs_nfR-57" style="edgeStyle=orthogonalEdgeStyle;rounded=0;orthogonalLoop=1;jettySize=auto;html=1;exitX=1;exitY=0;exitDx=0;exitDy=0;entryX=0;entryY=1;entryDx=0;entryDy=0;dashed=1;endArrow=none;endFill=0;strokeWidth=2;" edge="1" parent="1" source="DsosyKMC9AVD5Ugs_nfR-4" target="2xbcmrgEp1bGuqN2L9k1-26">
          <mxGeometry relative="1" as="geometry">
            <Array as="points">
              <mxPoint x="-220" y="387" />
              <mxPoint x="-220" y="355" />
              <mxPoint x="140" y="355" />
              <mxPoint x="140" y="352" />
            </Array>
          </mxGeometry>
        </mxCell>
        <mxCell id="DsosyKMC9AVD5Ugs_nfR-58" value="&lt;span style=&quot;font-size: 17px;&quot;&gt;&amp;lt;&amp;lt; include &amp;gt;&amp;gt;&lt;/span&gt;" style="edgeLabel;html=1;align=center;verticalAlign=middle;resizable=0;points=[];fontSize=17;" vertex="1" connectable="0" parent="DsosyKMC9AVD5Ugs_nfR-57">
          <mxGeometry x="-0.0139" y="5" relative="1" as="geometry">
            <mxPoint x="1" y="5" as="offset" />
          </mxGeometry>
        </mxCell>
        <mxCell id="DsosyKMC9AVD5Ugs_nfR-4" value="Cadastro Rfid" style="ellipse;whiteSpace=wrap;html=1;fontSize=20;strokeWidth=2;" vertex="1" parent="1">
          <mxGeometry x="-440" y="375" width="200" height="80" as="geometry" />
        </mxCell>
        <mxCell id="DsosyKMC9AVD5Ugs_nfR-59" style="edgeStyle=orthogonalEdgeStyle;rounded=0;orthogonalLoop=1;jettySize=auto;html=1;exitX=1;exitY=0;exitDx=0;exitDy=0;entryX=0.5;entryY=1;entryDx=0;entryDy=0;dashed=1;strokeWidth=2;endArrow=none;endFill=0;" edge="1" parent="1" source="DsosyKMC9AVD5Ugs_nfR-5" target="2xbcmrgEp1bGuqN2L9k1-26">
          <mxGeometry relative="1" as="geometry">
            <Array as="points">
              <mxPoint x="-269" y="485" />
              <mxPoint x="201" y="485" />
            </Array>
          </mxGeometry>
        </mxCell>
        <mxCell id="DsosyKMC9AVD5Ugs_nfR-60" value="&lt;span style=&quot;font-size: 17px;&quot;&gt;&amp;lt;&amp;lt; include &amp;gt;&amp;gt;&lt;/span&gt;" style="edgeLabel;html=1;align=center;verticalAlign=middle;resizable=0;points=[];fontSize=17;" vertex="1" connectable="0" parent="DsosyKMC9AVD5Ugs_nfR-59">
          <mxGeometry x="0.0119" y="-2" relative="1" as="geometry">
            <mxPoint x="96" y="-2" as="offset" />
          </mxGeometry>
        </mxCell>
        <mxCell id="DsosyKMC9AVD5Ugs_nfR-5" value="Cadastro Cor-Rfid" style="ellipse;whiteSpace=wrap;html=1;fontSize=20;strokeWidth=2;" vertex="1" parent="1">
          <mxGeometry x="-440" y="494.99999999999994" width="200" height="80" as="geometry" />
        </mxCell>
        <mxCell id="DsosyKMC9AVD5Ugs_nfR-61" style="edgeStyle=orthogonalEdgeStyle;rounded=0;orthogonalLoop=1;jettySize=auto;html=1;exitX=1;exitY=0;exitDx=0;exitDy=0;entryX=0.5;entryY=1;entryDx=0;entryDy=0;dashed=1;strokeWidth=2;endArrow=none;endFill=0;" edge="1" parent="1" source="DsosyKMC9AVD5Ugs_nfR-6" target="2xbcmrgEp1bGuqN2L9k1-26">
          <mxGeometry relative="1" as="geometry">
            <Array as="points">
              <mxPoint x="-269" y="615" />
              <mxPoint x="201" y="615" />
            </Array>
          </mxGeometry>
        </mxCell>
        <mxCell id="DsosyKMC9AVD5Ugs_nfR-62" value="&lt;span style=&quot;color: rgba(0, 0, 0, 0); font-family: monospace; font-size: 0px; text-align: start; background-color: rgb(251, 251, 251);&quot;&gt;%3CmxGraphModel%3E%3Croot%3E%3CmxCell%20id%3D%220%22%2F%3E%3CmxCell%20id%3D%221%22%20parent%3D%220%22%2F%3E%3CmxCell%20id%3D%222%22%20value%3D%22%26lt%3Bspan%20style%3D%26quot%3Bfont-size%3A%2020px%3B%26quot%3B%26gt%3B%26amp%3Blt%3B%26amp%3Blt%3B%20include%20%26amp%3Bgt%3B%26amp%3Bgt%3B%26lt%3B%2Fspan%26gt%3B%22%20style%3D%22edgeLabel%3Bhtml%3D1%3Balign%3Dcenter%3BverticalAlign%3Dmiddle%3Bresizable%3D0%3Bpoints%3D%5B%5D%3B%22%20vertex%3D%221%22%20connectable%3D%220%22%20parent%3D%221%22%3E%3CmxGeometry%20x%3D%22319.5569921796009%22%20y%3D%22409.9999999999998%22%20as%3D%22geometry%22%2F%3E%3C%2FmxCell%3E%3C%2Froot%3E%3C%2FmxGraphModel%3E&lt;/span&gt;" style="edgeLabel;html=1;align=center;verticalAlign=middle;resizable=0;points=[];" vertex="1" connectable="0" parent="DsosyKMC9AVD5Ugs_nfR-61">
          <mxGeometry x="-0.1949" y="-2" relative="1" as="geometry">
            <mxPoint x="1" as="offset" />
          </mxGeometry>
        </mxCell>
        <mxCell id="DsosyKMC9AVD5Ugs_nfR-63" value="&lt;span style=&quot;color: rgba(0, 0, 0, 0); font-family: monospace; font-size: 0px; text-align: start; background-color: rgb(251, 251, 251);&quot;&gt;%3CmxGraphModel%3E%3Croot%3E%3CmxCell%20id%3D%220%22%2F%3E%3CmxCell%20id%3D%221%22%20parent%3D%220%22%2F%3E%3CmxCell%20id%3D%222%22%20value%3D%22%26lt%3Bspan%20style%3D%26quot%3Bfont-size%3A%2020px%3B%26quot%3B%26gt%3B%26amp%3Blt%3B%26amp%3Blt%3B%20include%20%26amp%3Bgt%3B%26amp%3Bgt%3B%26lt%3B%2Fspan%26gt%3B%22%20style%3D%22edgeLabel%3Bhtml%3D1%3Balign%3Dcenter%3BverticalAlign%3Dmiddle%3Bresizable%3D0%3Bpoints%3D%5B%5D%3B%22%20vertex%3D%221%22%20connectable%3D%220%22%20parent%3D%221%22%3E%3CmxGeometry%20x%3D%22319.5569921796009%22%20y%3D%22409.9999999999998%22%20as%3D%22geometry%22%2F%3E%3C%2FmxCell%3E%3C%2Froot%3E%3C%2FmxGraphModel%3E&lt;/span&gt;" style="edgeLabel;html=1;align=center;verticalAlign=middle;resizable=0;points=[];" vertex="1" connectable="0" parent="DsosyKMC9AVD5Ugs_nfR-61">
          <mxGeometry x="-0.1857" y="2" relative="1" as="geometry">
            <mxPoint x="1" as="offset" />
          </mxGeometry>
        </mxCell>
        <mxCell id="DsosyKMC9AVD5Ugs_nfR-64" value="&lt;span style=&quot;font-size: 17px;&quot;&gt;&amp;lt;&amp;lt; include &amp;gt;&amp;gt;&lt;/span&gt;" style="edgeLabel;html=1;align=center;verticalAlign=middle;resizable=0;points=[];fontSize=17;" vertex="1" connectable="0" parent="DsosyKMC9AVD5Ugs_nfR-61">
          <mxGeometry x="-0.1903" y="-2" relative="1" as="geometry">
            <mxPoint x="-27" y="-10" as="offset" />
          </mxGeometry>
        </mxCell>
        <mxCell id="DsosyKMC9AVD5Ugs_nfR-6" value="Cadastro Função" style="ellipse;whiteSpace=wrap;html=1;fontSize=20;strokeWidth=2;" vertex="1" parent="1">
          <mxGeometry x="-440" y="625" width="200" height="80" as="geometry" />
        </mxCell>
        <mxCell id="DsosyKMC9AVD5Ugs_nfR-66" style="edgeStyle=orthogonalEdgeStyle;rounded=0;orthogonalLoop=1;jettySize=auto;html=1;exitX=1;exitY=0;exitDx=0;exitDy=0;entryX=0.5;entryY=1;entryDx=0;entryDy=0;dashed=1;endArrow=none;endFill=0;strokeWidth=2;" edge="1" parent="1" source="DsosyKMC9AVD5Ugs_nfR-17" target="2xbcmrgEp1bGuqN2L9k1-26">
          <mxGeometry relative="1" as="geometry">
            <Array as="points">
              <mxPoint x="-269" y="735" />
              <mxPoint x="261" y="735" />
            </Array>
          </mxGeometry>
        </mxCell>
        <mxCell id="DsosyKMC9AVD5Ugs_nfR-68" value="&lt;span style=&quot;font-size: 17px;&quot;&gt;&amp;lt;&amp;lt; include &amp;gt;&amp;gt;&lt;/span&gt;" style="edgeLabel;html=1;align=center;verticalAlign=middle;resizable=0;points=[];" vertex="1" connectable="0" parent="DsosyKMC9AVD5Ugs_nfR-66">
          <mxGeometry x="-0.2729" relative="1" as="geometry">
            <mxPoint x="1" as="offset" />
          </mxGeometry>
        </mxCell>
        <mxCell id="DsosyKMC9AVD5Ugs_nfR-17" value="Edição Tag-Rfid" style="ellipse;whiteSpace=wrap;html=1;fontSize=20;strokeWidth=2;" vertex="1" parent="1">
          <mxGeometry x="-440" y="745" width="200" height="80" as="geometry" />
        </mxCell>
        <mxCell id="DsosyKMC9AVD5Ugs_nfR-18" value="Edição&amp;nbsp;Cor-Rfid" style="ellipse;whiteSpace=wrap;html=1;fontSize=20;strokeWidth=2;" vertex="1" parent="1">
          <mxGeometry x="-440" y="855" width="200" height="80" as="geometry" />
        </mxCell>
        <mxCell id="DsosyKMC9AVD5Ugs_nfR-19" value="Edição&amp;nbsp;Pessoa" style="ellipse;whiteSpace=wrap;html=1;fontSize=20;strokeWidth=2;" vertex="1" parent="1">
          <mxGeometry x="-440" y="945.0000000000001" width="200" height="80" as="geometry" />
        </mxCell>
        <mxCell id="DsosyKMC9AVD5Ugs_nfR-20" value="Edição&amp;nbsp;Função" style="ellipse;whiteSpace=wrap;html=1;fontSize=20;strokeWidth=2;" vertex="1" parent="1">
          <mxGeometry x="-440" y="1035" width="200" height="80" as="geometry" />
        </mxCell>
        <mxCell id="DsosyKMC9AVD5Ugs_nfR-25" value="Listagem Tag-Rfid" style="ellipse;whiteSpace=wrap;html=1;fontSize=20;strokeWidth=2;" vertex="1" parent="1">
          <mxGeometry x="-205" y="374.99999999999994" width="200" height="80" as="geometry" />
        </mxCell>
        <mxCell id="DsosyKMC9AVD5Ugs_nfR-26" value="Listagem&amp;nbsp;Pessoa" style="ellipse;whiteSpace=wrap;html=1;fontSize=20;strokeWidth=2;" vertex="1" parent="1">
          <mxGeometry x="-200" y="494.99999999999994" width="200" height="80" as="geometry" />
        </mxCell>
        <mxCell id="DsosyKMC9AVD5Ugs_nfR-27" value="Listagem&amp;nbsp;Cor-Rfid" style="ellipse;whiteSpace=wrap;html=1;fontSize=20;strokeWidth=2;" vertex="1" parent="1">
          <mxGeometry x="-200" y="625" width="200" height="80" as="geometry" />
        </mxCell>
        <mxCell id="DsosyKMC9AVD5Ugs_nfR-28" value="Listagem&amp;nbsp;Função" style="ellipse;whiteSpace=wrap;html=1;fontSize=20;strokeWidth=2;" vertex="1" parent="1">
          <mxGeometry x="-200" y="745" width="200" height="80" as="geometry" />
        </mxCell>
        <mxCell id="DsosyKMC9AVD5Ugs_nfR-38" style="edgeStyle=orthogonalEdgeStyle;rounded=0;orthogonalLoop=1;jettySize=auto;html=1;exitX=1;exitY=0.5;exitDx=0;exitDy=0;entryX=0;entryY=0.5;entryDx=0;entryDy=0;dashed=1;strokeWidth=2;endArrow=none;endFill=0;" edge="1" parent="1" source="DsosyKMC9AVD5Ugs_nfR-35" target="2xbcmrgEp1bGuqN2L9k1-27">
          <mxGeometry relative="1" as="geometry" />
        </mxCell>
        <mxCell id="DsosyKMC9AVD5Ugs_nfR-39" value="&amp;lt;&amp;lt; include &amp;gt;&amp;gt;" style="edgeLabel;html=1;align=center;verticalAlign=middle;resizable=0;points=[];fontSize=17;" vertex="1" connectable="0" parent="DsosyKMC9AVD5Ugs_nfR-38">
          <mxGeometry x="-0.1091" y="-1" relative="1" as="geometry">
            <mxPoint as="offset" />
          </mxGeometry>
        </mxCell>
        <mxCell id="DsosyKMC9AVD5Ugs_nfR-35" value="Fazer Login" style="ellipse;whiteSpace=wrap;html=1;fontSize=20;strokeWidth=2;" vertex="1" parent="1">
          <mxGeometry x="-440" y="95" width="200" height="80" as="geometry" />
        </mxCell>
        <mxCell id="DsosyKMC9AVD5Ugs_nfR-65" style="edgeStyle=orthogonalEdgeStyle;rounded=0;orthogonalLoop=1;jettySize=auto;html=1;exitX=0.5;exitY=0;exitDx=0;exitDy=0;exitPerimeter=0;entryX=1;entryY=0.5;entryDx=0;entryDy=0;endArrow=none;endFill=0;strokeWidth=2.5;" edge="1" parent="1" source="DsosyKMC9AVD5Ugs_nfR-45" target="_47bZvJthy9wEYej37XV-11">
          <mxGeometry relative="1" as="geometry" />
        </mxCell>
        <mxCell id="DsosyKMC9AVD5Ugs_nfR-70" style="edgeStyle=orthogonalEdgeStyle;rounded=0;orthogonalLoop=1;jettySize=auto;html=1;exitX=0.5;exitY=0.5;exitDx=0;exitDy=0;exitPerimeter=0;entryX=1;entryY=0.5;entryDx=0;entryDy=0;endArrow=none;endFill=0;strokeWidth=2.5;" edge="1" parent="1" source="DsosyKMC9AVD5Ugs_nfR-45" target="DsosyKMC9AVD5Ugs_nfR-19">
          <mxGeometry relative="1" as="geometry">
            <Array as="points">
              <mxPoint x="409" y="515" />
              <mxPoint x="310" y="515" />
              <mxPoint x="310" y="985" />
            </Array>
          </mxGeometry>
        </mxCell>
        <mxCell id="DsosyKMC9AVD5Ugs_nfR-45" value="Acessante" style="shape=umlActor;verticalLabelPosition=bottom;verticalAlign=top;html=1;outlineConnect=0;fontSize=21;strokeWidth=1;fillColor=#FFFFFF;" vertex="1" parent="1">
          <mxGeometry x="364" y="415" width="90" height="190" as="geometry" />
        </mxCell>
        <mxCell id="DsosyKMC9AVD5Ugs_nfR-46" style="edgeStyle=orthogonalEdgeStyle;rounded=0;orthogonalLoop=1;jettySize=auto;html=1;exitX=1;exitY=0.5;exitDx=0;exitDy=0;entryX=0.5;entryY=0.5;entryDx=0;entryDy=0;entryPerimeter=0;startArrow=none;startFill=0;endArrow=none;endFill=0;strokeWidth=2.5;" edge="1" parent="1" source="2xbcmrgEp1bGuqN2L9k1-24" target="DsosyKMC9AVD5Ugs_nfR-45">
          <mxGeometry relative="1" as="geometry">
            <Array as="points">
              <mxPoint x="70" y="325" />
              <mxPoint x="70" y="510" />
            </Array>
          </mxGeometry>
        </mxCell>
        <mxCell id="DsosyKMC9AVD5Ugs_nfR-74" style="edgeStyle=orthogonalEdgeStyle;rounded=0;orthogonalLoop=1;jettySize=auto;html=1;exitX=1;exitY=0.5;exitDx=0;exitDy=0;entryX=0.547;entryY=1.004;entryDx=0;entryDy=0;entryPerimeter=0;endArrow=none;endFill=0;strokeWidth=2;dashed=1;" edge="1" parent="1" source="DsosyKMC9AVD5Ugs_nfR-18" target="2xbcmrgEp1bGuqN2L9k1-26">
          <mxGeometry relative="1" as="geometry" />
        </mxCell>
        <mxCell id="DsosyKMC9AVD5Ugs_nfR-75" value="&lt;span style=&quot;font-size: 17px;&quot;&gt;&amp;lt;&amp;lt; include &amp;gt;&amp;gt;&lt;/span&gt;" style="edgeLabel;html=1;align=center;verticalAlign=middle;resizable=0;points=[];" vertex="1" connectable="0" parent="DsosyKMC9AVD5Ugs_nfR-74">
          <mxGeometry x="-0.4411" y="3" relative="1" as="geometry">
            <mxPoint as="offset" />
          </mxGeometry>
        </mxCell>
        <mxCell id="DsosyKMC9AVD5Ugs_nfR-76" style="edgeStyle=orthogonalEdgeStyle;rounded=0;orthogonalLoop=1;jettySize=auto;html=1;exitX=1;exitY=0;exitDx=0;exitDy=0;entryX=0.588;entryY=1.004;entryDx=0;entryDy=0;entryPerimeter=0;endArrow=none;endFill=0;strokeWidth=2;dashed=1;" edge="1" parent="1" source="DsosyKMC9AVD5Ugs_nfR-19" target="2xbcmrgEp1bGuqN2L9k1-26">
          <mxGeometry relative="1" as="geometry" />
        </mxCell>
        <mxCell id="DsosyKMC9AVD5Ugs_nfR-77" value="&lt;span style=&quot;font-size: 17px;&quot;&gt;&amp;lt;&amp;lt; include &amp;gt;&amp;gt;&lt;/span&gt;" style="edgeLabel;html=1;align=center;verticalAlign=middle;resizable=0;points=[];" vertex="1" connectable="0" parent="DsosyKMC9AVD5Ugs_nfR-76">
          <mxGeometry x="-0.413" relative="1" as="geometry">
            <mxPoint x="1" as="offset" />
          </mxGeometry>
        </mxCell>
        <mxCell id="DsosyKMC9AVD5Ugs_nfR-78" style="edgeStyle=orthogonalEdgeStyle;rounded=0;orthogonalLoop=1;jettySize=auto;html=1;exitX=1;exitY=0.5;exitDx=0;exitDy=0;endArrow=none;endFill=0;strokeWidth=2;dashed=1;entryX=0.635;entryY=0.961;entryDx=0;entryDy=0;entryPerimeter=0;" edge="1" parent="1" source="DsosyKMC9AVD5Ugs_nfR-20" target="2xbcmrgEp1bGuqN2L9k1-26">
          <mxGeometry relative="1" as="geometry">
            <mxPoint x="295" y="365" as="targetPoint" />
          </mxGeometry>
        </mxCell>
        <mxCell id="DsosyKMC9AVD5Ugs_nfR-79" value="&lt;span style=&quot;font-size: 17px;&quot;&gt;&amp;lt;&amp;lt; include &amp;gt;&amp;gt;&lt;/span&gt;" style="edgeLabel;html=1;align=center;verticalAlign=middle;resizable=0;points=[];" vertex="1" connectable="0" parent="DsosyKMC9AVD5Ugs_nfR-78">
          <mxGeometry x="-0.6393" y="1" relative="1" as="geometry">
            <mxPoint as="offset" />
          </mxGeometry>
        </mxCell>
        <mxCell id="DsosyKMC9AVD5Ugs_nfR-91" style="edgeStyle=orthogonalEdgeStyle;rounded=0;orthogonalLoop=1;jettySize=auto;html=1;exitX=1;exitY=0.5;exitDx=0;exitDy=0;entryX=1;entryY=0.5;entryDx=0;entryDy=0;dashed=1;strokeWidth=2;endArrow=none;endFill=0;" edge="1" parent="1" source="DsosyKMC9AVD5Ugs_nfR-81" target="2xbcmrgEp1bGuqN2L9k1-26">
          <mxGeometry relative="1" as="geometry">
            <Array as="points">
              <mxPoint x="800" y="455" />
              <mxPoint x="800" y="320" />
            </Array>
          </mxGeometry>
        </mxCell>
        <mxCell id="DsosyKMC9AVD5Ugs_nfR-81" value="Cadastro Usuário" style="ellipse;whiteSpace=wrap;html=1;fontSize=20;strokeWidth=2;" vertex="1" parent="1">
          <mxGeometry x="560" y="415" width="200" height="80" as="geometry" />
        </mxCell>
        <mxCell id="DsosyKMC9AVD5Ugs_nfR-90" style="edgeStyle=orthogonalEdgeStyle;rounded=0;orthogonalLoop=1;jettySize=auto;html=1;exitX=1;exitY=0.5;exitDx=0;exitDy=0;entryX=1;entryY=0.5;entryDx=0;entryDy=0;dashed=1;strokeWidth=2;endArrow=none;endFill=0;" edge="1" parent="1" source="DsosyKMC9AVD5Ugs_nfR-82" target="2xbcmrgEp1bGuqN2L9k1-26">
          <mxGeometry relative="1" as="geometry">
            <Array as="points">
              <mxPoint x="800" y="575" />
              <mxPoint x="800" y="320" />
            </Array>
          </mxGeometry>
        </mxCell>
        <mxCell id="DsosyKMC9AVD5Ugs_nfR-92" value="&lt;span style=&quot;font-size: 17px;&quot;&gt;&amp;lt;&amp;lt; include &amp;gt;&amp;gt;&lt;/span&gt;" style="edgeLabel;html=1;align=center;verticalAlign=middle;resizable=0;points=[];" vertex="1" connectable="0" parent="DsosyKMC9AVD5Ugs_nfR-90">
          <mxGeometry x="0.1798" y="2" relative="1" as="geometry">
            <mxPoint y="-3" as="offset" />
          </mxGeometry>
        </mxCell>
        <mxCell id="DsosyKMC9AVD5Ugs_nfR-82" value="Edição Usuário" style="ellipse;whiteSpace=wrap;html=1;fontSize=20;strokeWidth=2;" vertex="1" parent="1">
          <mxGeometry x="560" y="535" width="200" height="80" as="geometry" />
        </mxCell>
        <mxCell id="DsosyKMC9AVD5Ugs_nfR-83" value="Listagem Usuário" style="ellipse;whiteSpace=wrap;html=1;fontSize=20;strokeWidth=2;" vertex="1" parent="1">
          <mxGeometry x="560" y="650" width="200" height="80" as="geometry" />
        </mxCell>
        <mxCell id="DsosyKMC9AVD5Ugs_nfR-86" style="edgeStyle=orthogonalEdgeStyle;rounded=0;orthogonalLoop=1;jettySize=auto;html=1;endArrow=block;endFill=0;startArrow=none;startFill=0;strokeWidth=2;jumpSize=13;jumpStyle=arc;" edge="1" parent="1">
          <mxGeometry relative="1" as="geometry">
            <mxPoint x="450" y="930" as="sourcePoint" />
            <mxPoint x="-715" y="720" as="targetPoint" />
            <Array as="points">
              <mxPoint x="450" y="1130" />
              <mxPoint x="-715" y="1130" />
            </Array>
          </mxGeometry>
        </mxCell>
        <mxCell id="DsosyKMC9AVD5Ugs_nfR-87" style="edgeStyle=orthogonalEdgeStyle;rounded=0;orthogonalLoop=1;jettySize=auto;html=1;exitX=1;exitY=0.3333333333333333;exitDx=0;exitDy=0;exitPerimeter=0;entryX=0;entryY=0.5;entryDx=0;entryDy=0;endArrow=none;endFill=0;" edge="1" parent="1" source="DsosyKMC9AVD5Ugs_nfR-85" target="DsosyKMC9AVD5Ugs_nfR-81">
          <mxGeometry relative="1" as="geometry" />
        </mxCell>
        <mxCell id="DsosyKMC9AVD5Ugs_nfR-88" style="edgeStyle=orthogonalEdgeStyle;rounded=0;orthogonalLoop=1;jettySize=auto;html=1;exitX=1;exitY=0.3333333333333333;exitDx=0;exitDy=0;exitPerimeter=0;entryX=0;entryY=0.5;entryDx=0;entryDy=0;endArrow=none;endFill=0;" edge="1" parent="1" source="DsosyKMC9AVD5Ugs_nfR-85" target="DsosyKMC9AVD5Ugs_nfR-82">
          <mxGeometry relative="1" as="geometry" />
        </mxCell>
        <mxCell id="DsosyKMC9AVD5Ugs_nfR-89" style="edgeStyle=orthogonalEdgeStyle;rounded=0;orthogonalLoop=1;jettySize=auto;html=1;exitX=1;exitY=0.3333333333333333;exitDx=0;exitDy=0;exitPerimeter=0;endArrow=none;endFill=0;" edge="1" parent="1" source="DsosyKMC9AVD5Ugs_nfR-85" target="DsosyKMC9AVD5Ugs_nfR-83">
          <mxGeometry relative="1" as="geometry" />
        </mxCell>
        <mxCell id="DsosyKMC9AVD5Ugs_nfR-85" value="SuperAdministrador" style="shape=umlActor;verticalLabelPosition=bottom;verticalAlign=top;html=1;outlineConnect=0;fontSize=21;strokeWidth=1;fillColor=#E0E7FF;" vertex="1" parent="1">
          <mxGeometry x="400" y="705" width="90" height="190" as="geometry" />
        </mxCell>
      </root>
    </mxGraphModel>
  </diagram>
</mxfile>
